<svg width="43" height="43" viewBox="0 0 43 43" fill="none" xmlns="http://www.w3.org/2000/svg">
<rect x="0.628448" y="0.430664" width="42.3481" height="42" rx="16" fill="#206ECF"/>
<path d="M20.5293 22.4801L15.0489 16.9991C15.3144 16.5589 15.6888 16.1946 16.1361 15.9412C16.5834 15.6878 17.0884 15.5539 17.6025 15.5525H21.9789C21.6674 16.6167 21.787 17.7606 22.3118 18.7373C22.8366 19.714 23.7246 20.445 24.7839 20.7725L23.0757 22.4813C22.7374 22.818 22.2795 23.0068 21.8022 23.0066C21.325 23.0064 20.8673 22.8171 20.5293 22.4801ZM23.9241 23.3285C23.3608 23.8901 22.5979 24.2055 21.8025 24.2055C21.0071 24.2055 20.2441 23.8901 19.6809 23.3285L14.6301 18.2777C14.6217 18.3725 14.6025 18.4583 14.6025 18.5525V25.1525C14.6034 25.9479 14.9198 26.7104 15.4822 27.2728C16.0446 27.8352 16.8071 28.1516 17.6025 28.1525H26.0025C26.7978 28.1516 27.5603 27.8352 28.1227 27.2728C28.6851 26.7104 29.0015 25.9479 29.0025 25.1525V19.6889C28.2891 20.4188 27.3335 20.8626 26.3157 20.9369L23.9241 23.3285Z" fill="white"/>
<path d="M23.5829 18.1741H25.059V19.6502C25.059 19.8445 25.1362 20.0309 25.2736 20.1683C25.411 20.3057 25.5973 20.3828 25.7916 20.3828C25.9859 20.3828 26.1723 20.3057 26.3097 20.1683C26.4471 20.0309 26.5242 19.8445 26.5242 19.6502V18.1741H28.0003C28.1946 18.1741 28.381 18.097 28.5184 17.9596C28.6558 17.8222 28.7329 17.6358 28.7329 17.4415C28.7329 17.2472 28.6558 17.0609 28.5184 16.9235C28.381 16.7861 28.1946 16.7089 28.0003 16.7089H26.5242V15.2328C26.5242 15.0385 26.4471 14.8522 26.3097 14.7148C26.1723 14.5774 25.9859 14.5002 25.7916 14.5002C25.5973 14.5002 25.411 14.5774 25.2736 14.7148C25.1362 14.8522 25.059 15.0385 25.059 15.2328V16.7089H23.5829C23.3886 16.7089 23.2023 16.7861 23.0649 16.9235C22.9275 17.0609 22.8503 17.2472 22.8503 17.4415C22.8503 17.6358 22.9275 17.8222 23.0649 17.9596C23.2023 18.097 23.3886 18.1741 23.5829 18.1741Z" fill="white" stroke="white" stroke-width="0.360897"/>
</svg>
