<svg width="42" height="43" viewBox="0 0 42 43" fill="none" xmlns="http://www.w3.org/2000/svg">
<rect y="0.430664" width="42" height="42" rx="16" fill="#206ECF"/>
<g clip-path="url(#clip0_2709_65)">
<path d="M27.75 17.4932V19.1807H14.25V17.4932C14.25 16.5628 15.0071 15.8057 15.9375 15.8057H17.625V14.6807H18.75V15.8057H23.25V14.6807H24.375V15.8057H26.0625C26.9929 15.8057 27.75 16.5628 27.75 17.4932ZM18.75 24.2432C18.75 22.6519 19.4858 21.2338 20.6338 20.3057H14.25V28.1807H20.6338C19.4858 27.2525 18.75 25.8345 18.75 24.2432Z" fill="white"/>
<path d="M21.0844 24.7494H23.025V26.69C23.025 26.8616 23.0932 27.0261 23.2145 27.1474C23.3358 27.2688 23.5003 27.3369 23.6719 27.3369C23.8434 27.3369 24.008 27.2688 24.1293 27.1474C24.2506 27.0261 24.3188 26.8616 24.3188 26.69V24.7494H26.2594C26.4309 24.7494 26.5955 24.6813 26.7168 24.5599C26.8381 24.4386 26.9062 24.2741 26.9062 24.1025C26.9062 23.931 26.8381 23.7664 26.7168 23.6451C26.5955 23.5238 26.4309 23.4557 26.2594 23.4557H24.3188V21.515C24.3188 21.3435 24.2506 21.1789 24.1293 21.0576C24.008 20.9363 23.8434 20.8682 23.6719 20.8682C23.5003 20.8682 23.3358 20.9363 23.2145 21.0576C23.0932 21.1789 23.025 21.3435 23.025 21.515V23.4557H21.0844C20.9128 23.4557 20.7483 23.5238 20.627 23.6451C20.5057 23.7664 20.4375 23.931 20.4375 24.1025C20.4375 24.2741 20.5057 24.4386 20.627 24.5599C20.7483 24.6813 20.9128 24.7494 21.0844 24.7494Z" fill="white"/>
<path d="M21.0844 24.7494H23.025V26.69C23.025 26.8616 23.0932 27.0261 23.2145 27.1474C23.3358 27.2688 23.5003 27.3369 23.6719 27.3369C23.8434 27.3369 24.008 27.2688 24.1293 27.1474C24.2506 27.0261 24.3188 26.8616 24.3188 26.69V24.7494H26.2594C26.4309 24.7494 26.5955 24.6813 26.7168 24.5599C26.8381 24.4386 26.9062 24.2741 26.9062 24.1025C26.9062 23.931 26.8381 23.7664 26.7168 23.6451C26.5955 23.5238 26.4309 23.4557 26.2594 23.4557H24.3188V21.515C24.3188 21.3435 24.2506 21.1789 24.1293 21.0576C24.008 20.9363 23.8434 20.8682 23.6719 20.8682C23.5003 20.8682 23.3358 20.9363 23.2145 21.0576C23.0932 21.1789 23.025 21.3435 23.025 21.515V23.4557H21.0844C20.9128 23.4557 20.7483 23.5238 20.627 23.6451C20.5057 23.7664 20.4375 23.931 20.4375 24.1025C20.4375 24.2741 20.5057 24.4386 20.627 24.5599C20.7483 24.6813 20.9128 24.7494 21.0844 24.7494Z" stroke="white"/>
</g>
<defs>
<clipPath id="clip0_2709_65">
<rect width="13.5" height="13.5" fill="white" transform="translate(14.25 14.6807)"/>
</clipPath>
</defs>
</svg>
