<svg width="124" height="124" viewBox="0 0 124 124" fill="none" xmlns="http://www.w3.org/2000/svg">
<g filter="url(#filter0_dd_1_409)">
<rect x="32" y="30" width="60" height="60" rx="30" fill="#206ECF"/>
<path d="M75.673 75.4519C75.673 75.4519 70.949 73.6569 67.127 72.2189H51.054C49.151 72.2189 47.609 70.6389 47.609 68.6909V48.0109C47.609 46.0639 49.151 44.4839 51.054 44.4839H72.226C74.129 44.4839 75.672 46.0639 75.672 48.0109V65.8219L75.673 65.8209V75.4519ZM71.525 63.8559C71.195 63.4619 70.614 63.4169 70.23 63.7539C70.2 63.7799 67.208 66.3499 61.639 66.3499C56.141 66.3499 53.103 63.7979 53.048 63.7519C52.663 63.4159 52.085 63.4629 51.755 63.8559C51.424 64.2509 51.47 64.8439 51.855 65.1829C51.998 65.3069 55.401 68.2309 61.639 68.2309C67.88 68.2309 71.284 65.3069 71.425 65.1829C71.81 64.8439 71.856 64.2509 71.525 63.8559Z" fill="white"/>
</g>
<defs>
<filter id="filter0_dd_1_409" x="0" y="0" width="124" height="124" filterUnits="userSpaceOnUse" color-interpolation-filters="sRGB">
<feFlood flood-opacity="0" result="BackgroundImageFix"/>
<feColorMatrix in="SourceAlpha" type="matrix" values="0 0 0 0 0 0 0 0 0 0 0 0 0 0 0 0 0 0 127 0" result="hardAlpha"/>
<feOffset dy="1"/>
<feGaussianBlur stdDeviation="3"/>
<feColorMatrix type="matrix" values="0 0 0 0 0 0 0 0 0 0 0 0 0 0 0 0 0 0 0.06 0"/>
<feBlend mode="normal" in2="BackgroundImageFix" result="effect1_dropShadow_1_409"/>
<feColorMatrix in="SourceAlpha" type="matrix" values="0 0 0 0 0 0 0 0 0 0 0 0 0 0 0 0 0 0 127 0" result="hardAlpha"/>
<feOffset dy="2"/>
<feGaussianBlur stdDeviation="16"/>
<feComposite in2="hardAlpha" operator="out"/>
<feColorMatrix type="matrix" values="0 0 0 0 0 0 0 0 0 0 0 0 0 0 0 0 0 0 0.16 0"/>
<feBlend mode="normal" in2="effect1_dropShadow_1_409" result="effect2_dropShadow_1_409"/>
<feBlend mode="normal" in="SourceGraphic" in2="effect2_dropShadow_1_409" result="shape"/>
</filter>
</defs>
</svg>
