<svg width="33" height="33" viewBox="0 0 33 33" fill="none" xmlns="http://www.w3.org/2000/svg">
<path d="M8.33569 10.0252C8.33569 8.98558 9.17845 8.14282 10.218 8.14282H13.0416C14.0812 8.14282 14.9239 8.98558 14.9239 10.0252V12.8487C14.9239 13.8883 14.0812 14.7311 13.0416 14.7311H10.218C9.17845 14.7311 8.33569 13.8883 8.33569 12.8487V10.0252Z" fill="white"/>
<path d="M8.33569 18.4958C8.33569 17.4562 9.17845 16.6134 10.218 16.6134H13.0416C14.0812 16.6134 14.9239 17.4562 14.9239 18.4958V21.3193C14.9239 22.3589 14.0812 23.2016 13.0416 23.2016H10.218C9.17845 23.2016 8.33569 22.3589 8.33569 21.3193V18.4958Z" fill="white"/>
<path d="M16.8063 10.0252C16.8063 8.98558 17.649 8.14282 18.6886 8.14282H21.5122C22.5518 8.14282 23.3945 8.98558 23.3945 10.0252V12.8487C23.3945 13.8883 22.5518 14.7311 21.5122 14.7311H18.6886C17.649 14.7311 16.8063 13.8883 16.8063 12.8487V10.0252Z" fill="white"/>
<path d="M16.8063 18.4958C16.8063 17.4562 17.649 16.6134 18.6886 16.6134H22.4533C23.4929 16.6134 24.3357 17.4562 24.3357 18.4958V22.2605C24.3357 23.3001 23.4929 24.1428 22.4533 24.1428H18.6886C17.649 24.1428 16.8063 23.3001 16.8063 22.2605V18.4958Z" fill="white"/>
</svg>
