<svg width="33" height="33" viewBox="0 0 33 33" fill="none" xmlns="http://www.w3.org/2000/svg">
<g clip-path="url(#clip0_1_578)">
<path d="M17.3532 11.9524H16.0834C15.7466 11.9524 15.4236 12.0951 15.1855 12.3491C14.9473 12.6031 14.8135 12.9477 14.8135 13.3069V22.8095C14.8135 23.5459 15.4105 24.1429 16.1469 24.1429H17.2897C18.0261 24.1429 18.6231 23.5459 18.6231 22.8095V13.3069C18.6231 12.9477 18.4893 12.6031 18.2511 12.3491C18.013 12.0951 17.69 11.9524 17.3532 11.9524Z" fill="white"/>
<path d="M23.4485 8.14282H22.1787C21.8419 8.14282 21.5189 8.2833 21.2807 8.53335C21.0426 8.7834 20.9088 9.12253 20.9088 9.47616V22.8095C20.9088 23.5459 21.5058 24.1428 22.2421 24.1428H23.385C24.1214 24.1428 24.7183 23.5459 24.7183 22.8095V9.47616C24.7183 9.12253 24.5846 8.7834 24.3464 8.53335C24.1083 8.2833 23.7853 8.14282 23.4485 8.14282Z" fill="white"/>
<path d="M11.258 15.762H9.98816C9.65138 15.762 9.32839 15.9091 9.09025 16.1711C8.85211 16.433 8.71832 16.7883 8.71832 17.1588V22.8096C8.71832 23.546 9.31528 24.1429 10.0517 24.1429H11.1945C11.9309 24.1429 12.5278 23.546 12.5278 22.8096V17.1588C12.5278 16.7883 12.3941 16.433 12.1559 16.1711C11.9178 15.9091 11.5948 15.762 11.258 15.762Z" fill="white"/>
</g>
<defs>
<clipPath id="clip0_1_578">
<rect width="16" height="16" fill="white" transform="translate(8.71832 8.14282)"/>
</clipPath>
</defs>
</svg>
