<svg width="1021" height="1022" viewBox="0 0 1021 1022" fill="none" xmlns="http://www.w3.org/2000/svg">
<path opacity="0.0344828" d="M159.181 423.89C160.778 418.56 164.697 413.94 170.935 410.064C177.183 406.181 185.679 403.1 196.233 400.853C217.339 396.359 246.365 395.263 281.295 397.485C351.131 401.928 444.228 419.611 544.011 449.503C643.795 479.395 731.281 515.809 792.057 550.493C822.456 567.841 846.098 584.715 861.257 600.073C868.837 607.753 874.24 614.997 877.325 621.676C880.404 628.343 881.138 634.357 879.541 639.687C877.945 645.016 874.025 649.637 867.787 653.513C861.539 657.395 853.043 660.476 842.489 662.723C821.383 667.217 792.357 668.314 757.427 666.091C687.592 661.648 594.494 643.966 494.711 614.074C394.927 584.182 307.442 547.768 246.665 513.083C216.267 495.735 192.624 478.861 177.465 463.503C169.885 455.823 164.482 448.579 161.397 441.901C158.318 435.233 157.585 429.219 159.181 423.89Z" stroke="url(#paint0_linear_1_792)" stroke-opacity="0.5" stroke-width="3.01398"/>
<path opacity="0.0689655" d="M168.762 390.142C170.817 384.972 175.124 380.711 181.676 377.393C188.239 374.07 196.971 371.742 207.68 370.423C229.098 367.785 258.109 369.223 292.712 374.481C361.895 384.994 453.097 410.723 549.895 449.198C646.694 487.673 730.673 531.573 788.195 571.423C816.966 591.354 839.048 610.225 852.811 626.846C859.693 635.157 864.443 642.844 866.935 649.766C869.421 656.676 869.628 662.732 867.573 667.902C865.518 673.072 861.211 677.333 854.659 680.651C848.095 683.974 839.364 686.302 828.654 687.621C807.236 690.259 778.226 688.821 743.622 683.563C674.44 673.05 583.238 647.321 486.439 608.846C389.641 570.371 305.662 526.471 248.14 486.621C219.368 466.69 197.286 447.819 183.523 431.198C176.641 422.887 171.891 415.2 169.4 408.278C166.913 401.368 166.707 395.312 168.762 390.142Z" stroke="url(#paint1_linear_1_792)" stroke-opacity="0.5" stroke-width="3.01398"/>
<path opacity="0.103448" d="M181.004 357.45C183.501 352.479 188.163 348.609 194.98 345.875C201.807 343.137 210.709 341.578 221.493 341.198C243.059 340.437 271.834 344.398 305.847 352.652C373.851 369.154 462.463 402.734 555.54 449.499C648.617 496.264 728.45 547.317 782.28 592.028C809.205 614.391 829.558 635.114 841.82 652.872C847.951 661.751 852.014 669.823 853.892 676.936C855.767 684.036 855.445 690.087 852.947 695.058C850.449 700.029 845.787 703.899 838.971 706.633C832.143 709.371 823.242 710.93 812.458 711.311C790.892 712.071 762.117 708.111 728.103 699.857C660.1 683.354 571.488 649.774 478.411 603.009C385.334 556.244 305.501 505.191 251.671 460.48C224.746 438.117 204.393 417.394 192.131 399.637C185.999 390.757 181.937 382.685 180.059 375.572C178.184 368.472 178.506 362.421 181.004 357.45Z" stroke="url(#paint2_linear_1_792)" stroke-opacity="0.5" stroke-width="3.01398"/>
<path opacity="0.137931" d="M195.802 326.042C198.723 321.307 203.705 317.859 210.733 315.729C217.774 313.597 226.777 312.819 237.553 313.38C259.103 314.502 287.424 320.956 320.589 332.143C386.895 354.509 472.243 395.684 560.89 450.384C649.537 505.083 724.617 562.899 774.345 612.132C799.218 636.757 817.688 659.175 828.356 677.933C833.69 687.313 837.033 695.709 838.284 702.958C839.534 710.195 838.685 716.194 835.764 720.929C832.842 725.664 827.861 729.113 820.832 731.242C813.791 733.375 804.788 734.152 794.012 733.591C772.462 732.469 744.141 726.016 710.977 714.828C644.67 692.462 559.322 651.287 470.675 596.587C382.028 541.888 306.948 484.072 257.22 434.839C232.347 410.214 213.877 387.796 203.21 369.038C197.875 359.658 194.532 351.262 193.281 344.013C192.032 336.776 192.88 330.777 195.802 326.042Z" stroke="url(#paint3_linear_1_792)" stroke-opacity="0.5" stroke-width="3.01398"/>
<path opacity="0.172414" d="M213.033 296.139C216.356 291.677 221.619 288.675 228.806 287.167C236.006 285.656 245.043 285.666 255.729 287.164C277.099 290.16 304.749 299.057 336.813 313.092C400.917 341.152 482.352 389.61 565.894 451.827C649.437 514.044 719.192 578.184 764.44 631.563C787.072 658.263 803.518 682.205 812.51 701.822C817.006 711.631 819.605 720.286 820.22 727.617C820.834 734.935 819.466 740.837 816.143 745.299C812.819 749.761 807.556 752.763 800.369 754.272C793.169 755.783 784.132 755.772 773.446 754.274C752.076 751.279 724.426 742.381 692.362 728.346C628.258 700.286 546.823 651.829 463.281 589.612C379.738 527.394 309.983 463.254 264.735 409.875C242.103 383.176 225.657 359.233 216.665 339.617C212.169 329.808 209.57 321.153 208.955 313.822C208.341 306.503 209.709 300.601 213.033 296.139Z" stroke="url(#paint4_linear_1_792)" stroke-opacity="0.5" stroke-width="3.01398"/>
<path opacity="0.206897" d="M232.561 267.943C236.26 263.787 241.765 261.256 249.057 260.379C256.361 259.501 265.362 260.3 275.877 262.723C296.905 267.57 323.675 278.843 354.393 295.619C415.808 329.16 492.71 384.53 570.511 453.792C648.313 523.054 712.213 593.029 752.637 650.149C772.856 678.719 787.152 704.004 794.4 724.33C798.024 734.493 799.859 743.342 799.832 750.698C799.806 758.042 797.929 763.803 794.229 767.959C790.53 772.114 785.025 774.645 777.734 775.522C770.43 776.4 761.428 775.602 750.914 773.178C729.885 768.331 703.116 757.058 672.398 740.282C610.983 706.741 534.081 651.371 456.279 582.109C378.478 512.847 314.578 442.872 274.154 385.752C253.935 357.182 239.639 331.897 232.391 311.571C228.766 301.408 226.932 292.559 226.958 285.203C226.985 277.859 228.862 272.098 232.561 267.943Z" stroke="url(#paint5_linear_1_792)" stroke-opacity="0.5" stroke-width="3.01398"/>
<path opacity="0.241379" d="M254.224 241.65C258.271 237.833 263.976 235.791 271.316 235.553C278.668 235.315 287.566 236.895 297.83 240.226C318.355 246.887 344.041 260.45 373.18 279.84C431.438 318.605 503.221 380.468 574.69 456.247C646.159 532.026 703.717 607.304 739.009 667.73C756.661 697.953 768.699 724.388 774.148 745.268C776.873 755.709 777.929 764.684 777.261 772.01C776.595 779.323 774.223 784.899 770.175 788.716C766.128 792.533 760.424 794.575 753.083 794.813C745.731 795.051 736.833 793.471 726.569 790.14C706.044 783.479 680.359 769.915 651.219 750.526C592.961 711.761 521.178 649.898 449.709 574.119C378.24 498.34 320.682 423.062 285.391 362.636C267.739 332.413 255.701 305.978 250.251 285.098C247.527 274.657 246.47 265.682 247.138 258.356C247.804 251.042 250.176 245.467 254.224 241.65Z" stroke="url(#paint6_linear_1_792)" stroke-opacity="0.5" stroke-width="3.01398"/>
<path opacity="0.275862" d="M277.854 217.441C282.219 213.991 288.08 212.454 295.412 212.857C302.758 213.261 311.484 215.61 321.418 219.822C341.285 228.247 365.691 243.998 393.029 265.853C447.687 309.549 513.805 377.432 578.398 459.151C642.99 540.871 693.768 620.879 723.659 684.151C738.61 715.798 748.298 743.181 751.907 764.456C753.711 775.095 753.981 784.128 752.678 791.368C751.376 798.596 748.527 803.943 744.163 807.393C739.798 810.843 733.937 812.38 726.604 811.977C719.259 811.573 710.533 809.224 700.598 805.011C680.731 796.587 656.326 780.836 628.988 758.981C574.33 715.285 508.212 647.402 443.619 565.683C379.027 483.963 328.249 403.954 298.358 340.683C283.407 309.036 273.719 281.653 270.11 260.377C268.306 249.739 268.036 240.706 269.339 233.466C270.641 226.238 273.49 220.891 277.854 217.441Z" stroke="url(#paint7_linear_1_792)" stroke-opacity="0.5" stroke-width="3.01398"/>
<path opacity="0.310345" d="M302.862 195.277C307.511 192.22 313.483 191.2 320.753 192.241C328.035 193.283 336.523 196.384 346.053 201.446C365.11 211.57 388.05 229.388 413.379 253.543C464.021 301.836 523.971 375.223 581.195 462.261C638.42 549.3 682.031 633.429 706.294 699.065C718.429 731.895 725.694 760.018 727.435 781.527C728.305 792.283 727.787 801.305 725.857 808.404C723.931 815.49 720.627 820.569 715.978 823.625C711.329 826.682 705.357 827.702 698.087 826.662C690.805 825.619 682.317 822.518 672.787 817.456C653.73 807.332 630.791 789.514 605.461 765.359C554.819 717.066 494.869 643.679 437.645 556.641C380.42 469.603 336.809 385.473 312.546 319.837C300.411 287.007 293.146 258.884 291.405 237.375C290.535 226.619 291.053 217.598 292.983 210.499C294.909 203.412 298.213 198.333 302.862 195.277Z" stroke="url(#paint8_linear_1_792)" stroke-opacity="0.5" stroke-width="3.01398"/>
<path opacity="0.344828" d="M330.232 175.9C335.13 173.261 341.168 172.765 348.32 174.435C355.483 176.108 363.669 179.937 372.721 185.81C390.823 197.557 412.122 217.306 435.251 243.577C481.49 296.1 534.816 374.433 584.237 466.127C633.658 557.822 669.771 645.432 688.221 712.933C697.449 746.695 702.235 775.345 702.094 796.924C702.024 807.714 700.721 816.657 698.18 823.56C695.644 830.452 691.909 835.224 687.012 837.863C682.115 840.503 676.076 840.999 668.925 839.328C661.761 837.655 653.575 833.827 644.523 827.953C626.421 816.206 605.122 796.457 581.994 770.186C535.754 717.664 482.428 639.331 433.007 547.636C383.586 455.942 347.473 368.331 329.023 300.83C319.795 267.068 315.009 238.419 315.15 216.84C315.22 206.049 316.523 197.107 319.064 190.203C321.6 183.311 325.335 178.54 330.232 175.9Z" stroke="url(#paint9_linear_1_792)" stroke-opacity="0.5" stroke-width="3.01398"/>
<path opacity="0.758621" d="M691.743 153.684C696.478 156.606 699.927 161.587 702.056 168.616C704.189 175.656 704.966 184.66 704.405 195.436C703.283 216.986 696.83 245.306 685.643 278.471C663.276 344.777 622.101 430.126 567.402 518.772C512.702 607.419 454.886 682.499 405.653 732.228C381.028 757.101 358.61 775.57 339.852 786.238C330.472 791.572 322.077 794.916 314.827 796.167C307.59 797.416 301.591 796.568 296.856 793.646C292.122 790.725 288.673 785.743 286.544 778.715C284.411 771.674 283.634 762.671 284.194 751.895C285.316 730.344 291.77 702.024 302.957 668.859C325.323 602.553 366.499 517.205 421.198 428.558C475.897 339.911 533.714 264.831 582.946 215.103C607.571 190.23 629.989 171.76 648.748 161.092C658.127 155.758 666.523 152.415 673.772 151.163C681.009 149.914 687.008 150.763 691.743 153.684Z" stroke="url(#paint10_linear_1_792)" stroke-opacity="0.5" stroke-width="3.01398"/>
<path opacity="0.793103" d="M717.689 169.342C722.151 172.665 725.152 177.928 726.661 185.115C728.172 192.315 728.162 201.352 726.664 212.038C723.668 233.409 714.771 261.059 700.736 293.122C672.676 357.227 624.218 438.662 562.001 522.204C499.784 605.746 435.644 675.501 382.264 720.75C355.565 743.382 331.623 759.827 312.006 768.819C302.197 773.316 293.542 775.915 286.211 776.529C278.893 777.143 272.99 775.775 268.528 772.452C264.066 769.129 261.065 763.866 259.556 756.678C258.045 749.479 258.056 740.442 259.554 729.756C262.549 708.385 271.447 680.735 285.482 648.672C313.542 584.567 361.999 503.132 424.216 419.59C486.433 336.048 550.574 266.293 603.953 221.044C630.652 198.412 654.594 181.967 674.211 172.975C684.02 168.478 692.675 165.879 700.006 165.265C707.324 164.651 713.227 166.019 717.689 169.342Z" stroke="url(#paint11_linear_1_792)" stroke-opacity="0.5" stroke-width="3.01398"/>
<path opacity="0.827586" d="M741.922 187.295C746.077 190.995 748.609 196.499 749.485 203.791C750.363 211.095 749.565 220.096 747.141 230.611C742.294 251.639 731.021 278.409 714.245 309.127C680.705 370.542 625.334 447.444 556.072 525.246C486.811 603.047 416.835 666.947 359.715 707.371C331.145 727.59 305.861 741.886 285.535 749.134C275.371 752.759 266.523 754.593 259.166 754.567C251.822 754.54 246.061 752.663 241.906 748.964C237.75 745.264 235.219 739.76 234.343 732.468C233.465 725.164 234.263 716.163 236.686 705.648C241.533 684.62 252.807 657.85 269.583 627.132C303.123 565.717 358.494 488.815 427.755 411.014C497.017 333.212 566.993 269.312 624.113 228.888C652.683 208.669 677.967 194.373 698.293 187.125C708.457 183.5 717.305 181.666 724.662 181.692C732.006 181.719 737.766 183.596 741.922 187.295Z" stroke="url(#paint12_linear_1_792)" stroke-opacity="0.5" stroke-width="3.01398"/>
<path opacity="0.862069" d="M764.252 207.386C768.07 211.434 770.112 217.138 770.349 224.478C770.587 231.831 769.008 240.728 765.677 250.992C759.016 271.518 745.452 297.203 726.063 326.342C687.297 384.6 625.435 456.383 549.656 527.852C473.877 599.321 398.598 656.879 338.173 692.171C307.949 709.823 281.515 721.861 260.635 727.31C250.194 730.035 241.219 731.091 233.893 730.424C226.579 729.757 221.004 727.385 217.187 723.338C213.37 719.29 211.328 713.586 211.09 706.246C210.852 698.893 212.432 689.995 215.762 679.732C222.424 659.206 235.987 633.521 255.377 604.382C294.142 546.124 356.004 474.341 431.783 402.871C507.562 331.402 582.841 273.845 643.266 238.553C673.49 220.901 699.924 208.863 720.804 203.414C731.245 200.689 740.22 199.633 747.546 200.3C754.86 200.967 760.435 203.339 764.252 207.386Z" stroke="url(#paint13_linear_1_792)" stroke-opacity="0.5" stroke-width="3.01398"/>
<path opacity="0.896552" d="M784.503 229.44C787.953 233.805 789.49 239.665 789.087 246.998C788.683 254.344 786.334 263.07 782.121 273.004C773.696 292.871 757.946 317.276 736.09 344.615C692.395 399.272 624.512 465.391 542.792 529.983C461.073 594.576 381.064 645.354 317.793 675.245C286.146 690.195 258.763 699.884 237.487 703.492C226.848 705.297 217.816 705.567 210.575 704.263C203.348 702.962 198.001 700.113 194.551 695.748C191.101 691.383 189.564 685.523 189.967 678.19C190.37 670.844 192.719 662.118 196.932 652.184C205.357 632.317 221.107 607.912 242.963 580.573C286.658 525.916 354.541 459.797 436.261 395.205C517.98 330.612 597.989 279.834 661.261 249.944C692.908 234.993 720.291 225.304 741.566 221.696C752.205 219.891 761.238 219.621 768.478 220.925C775.706 222.226 781.053 225.075 784.503 229.44Z" stroke="url(#paint14_linear_1_792)" stroke-opacity="0.5" stroke-width="3.01398"/>
<path opacity="0.931035" d="M802.508 253.268C805.565 257.916 806.585 263.889 805.545 271.159C804.502 278.441 801.402 286.929 796.339 296.459C786.215 315.516 768.397 338.455 744.242 363.785C695.949 414.426 622.562 474.377 535.524 531.601C448.486 588.825 364.356 632.437 298.72 656.7C265.89 668.835 237.767 676.1 216.258 677.841C205.503 678.711 196.481 678.193 189.382 676.263C182.295 674.337 177.216 671.033 174.16 666.384C171.103 661.735 170.083 655.763 171.124 648.493C172.166 641.211 175.267 632.722 180.329 623.193C190.453 604.136 208.271 581.196 232.426 555.867C280.719 505.225 354.106 445.275 441.145 388.05C528.183 330.826 612.312 287.215 677.948 262.952C710.778 250.816 738.901 243.552 760.41 241.811C771.166 240.941 780.188 241.459 787.287 243.388C794.374 245.315 799.452 248.619 802.508 253.268Z" stroke="url(#paint15_linear_1_792)" stroke-opacity="0.5" stroke-width="3.01398"/>
<path opacity="0.965517" d="M818.123 278.67C820.762 283.567 821.258 289.605 819.588 296.757C817.915 303.921 814.086 312.107 808.212 321.158C796.466 339.261 776.717 360.56 750.446 383.688C697.923 429.928 619.59 483.254 527.895 532.675C436.201 582.095 348.591 618.208 281.09 636.658C247.327 645.886 218.678 650.672 197.099 650.532C186.309 650.461 177.366 649.159 170.462 646.618C163.57 644.081 158.799 640.347 156.16 635.449C153.52 630.552 153.024 624.514 154.694 617.362C156.367 610.198 160.196 602.013 166.07 592.961C177.816 574.858 197.566 553.559 223.836 530.431C276.359 484.191 354.692 430.865 446.387 381.445C538.081 332.024 625.692 295.911 693.192 277.461C726.955 268.233 755.604 263.447 777.183 263.587C787.973 263.658 796.916 264.96 803.82 267.501C810.712 270.038 815.483 273.772 818.123 278.67Z" stroke="url(#paint16_linear_1_792)" stroke-opacity="0.5" stroke-width="3.01398"/>
<path d="M831.216 305.427C833.419 310.536 833.387 316.595 831.1 323.574C828.808 330.564 824.281 338.385 817.641 346.891C804.361 363.9 782.831 383.397 754.644 404.148C698.291 445.634 615.608 491.93 519.956 533.171C424.303 574.412 333.878 602.752 265.026 615.248C230.588 621.499 201.631 623.77 180.146 621.749C169.403 620.738 160.608 618.661 153.952 615.528C147.307 612.4 142.88 608.265 140.677 603.156C138.474 598.047 138.506 591.988 140.794 585.009C143.085 578.019 147.612 570.198 154.253 561.692C167.532 544.683 189.063 525.186 217.249 504.435C273.602 462.949 356.285 416.653 451.938 375.412C547.59 334.171 638.015 305.831 706.867 293.335C741.305 287.084 770.263 284.813 791.747 286.834C802.49 287.845 811.285 289.922 817.941 293.055C824.586 296.183 829.014 300.318 831.216 305.427Z" stroke="url(#paint17_linear_1_792)" stroke-opacity="0.5" stroke-width="3.01398"/>
<defs>
<linearGradient id="paint0_linear_1_792" x1="494.278" y1="615.517" x2="544.444" y2="448.059" gradientUnits="userSpaceOnUse">
<stop offset="0.486979" stop-color="white" stop-opacity="0.34"/>
<stop offset="1" stop-color="white" stop-opacity="0"/>
</linearGradient>
<linearGradient id="paint1_linear_1_792" x1="485.883" y1="610.247" x2="550.452" y2="447.798" gradientUnits="userSpaceOnUse">
<stop offset="0.486979" stop-color="white" stop-opacity="0.34"/>
<stop offset="1" stop-color="white" stop-opacity="0"/>
</linearGradient>
<linearGradient id="paint2_linear_1_792" x1="477.734" y1="604.356" x2="556.216" y2="448.152" gradientUnits="userSpaceOnUse">
<stop offset="0.486979" stop-color="white" stop-opacity="0.34"/>
<stop offset="1" stop-color="white" stop-opacity="0"/>
</linearGradient>
<linearGradient id="paint3_linear_1_792" x1="469.884" y1="597.87" x2="561.681" y2="449.101" gradientUnits="userSpaceOnUse">
<stop offset="0.486979" stop-color="white" stop-opacity="0.34"/>
<stop offset="1" stop-color="white" stop-opacity="0"/>
</linearGradient>
<linearGradient id="paint4_linear_1_792" x1="462.38" y1="590.82" x2="566.795" y2="450.618" gradientUnits="userSpaceOnUse">
<stop offset="0.486979" stop-color="white" stop-opacity="0.34"/>
<stop offset="1" stop-color="white" stop-opacity="0"/>
</linearGradient>
<linearGradient id="paint5_linear_1_792" x1="455.277" y1="583.235" x2="571.513" y2="452.666" gradientUnits="userSpaceOnUse">
<stop offset="0.486979" stop-color="white" stop-opacity="0.34"/>
<stop offset="1" stop-color="white" stop-opacity="0"/>
</linearGradient>
<linearGradient id="paint6_linear_1_792" x1="448.613" y1="575.153" x2="575.786" y2="455.213" gradientUnits="userSpaceOnUse">
<stop offset="0.486979" stop-color="white" stop-opacity="0.34"/>
<stop offset="1" stop-color="white" stop-opacity="0"/>
</linearGradient>
<linearGradient id="paint7_linear_1_792" x1="442.437" y1="566.617" x2="579.58" y2="458.217" gradientUnits="userSpaceOnUse">
<stop offset="0.486979" stop-color="white" stop-opacity="0.34"/>
<stop offset="1" stop-color="white" stop-opacity="0"/>
</linearGradient>
<linearGradient id="paint8_linear_1_792" x1="436.386" y1="557.469" x2="582.455" y2="461.434" gradientUnits="userSpaceOnUse">
<stop offset="0.486979" stop-color="white" stop-opacity="0.34"/>
<stop offset="1" stop-color="white" stop-opacity="0"/>
</linearGradient>
<linearGradient id="paint9_linear_1_792" x1="431.68" y1="548.351" x2="585.564" y2="465.412" gradientUnits="userSpaceOnUse">
<stop offset="0.486979" stop-color="white" stop-opacity="0.34"/>
<stop offset="1" stop-color="white" stop-opacity="0"/>
</linearGradient>
<linearGradient id="paint10_linear_1_792" x1="419.915" y1="427.766" x2="568.684" y2="519.564" gradientUnits="userSpaceOnUse">
<stop offset="0.486979" stop-color="white" stop-opacity="0.34"/>
<stop offset="1" stop-color="white" stop-opacity="0"/>
</linearGradient>
<linearGradient id="paint11_linear_1_792" x1="423.008" y1="418.69" x2="563.21" y2="523.104" gradientUnits="userSpaceOnUse">
<stop offset="0.486979" stop-color="white" stop-opacity="0.34"/>
<stop offset="1" stop-color="white" stop-opacity="0"/>
</linearGradient>
<linearGradient id="paint12_linear_1_792" x1="426.63" y1="410.011" x2="557.198" y2="526.248" gradientUnits="userSpaceOnUse">
<stop offset="0.486979" stop-color="white" stop-opacity="0.34"/>
<stop offset="1" stop-color="white" stop-opacity="0"/>
</linearGradient>
<linearGradient id="paint13_linear_1_792" x1="430.749" y1="401.775" x2="550.69" y2="528.949" gradientUnits="userSpaceOnUse">
<stop offset="0.486979" stop-color="white" stop-opacity="0.34"/>
<stop offset="1" stop-color="white" stop-opacity="0"/>
</linearGradient>
<linearGradient id="paint14_linear_1_792" x1="435.326" y1="394.022" x2="543.727" y2="531.166" gradientUnits="userSpaceOnUse">
<stop offset="0.486979" stop-color="white" stop-opacity="0.34"/>
<stop offset="1" stop-color="white" stop-opacity="0"/>
</linearGradient>
<linearGradient id="paint15_linear_1_792" x1="440.317" y1="386.791" x2="536.352" y2="532.86" gradientUnits="userSpaceOnUse">
<stop offset="0.486979" stop-color="white" stop-opacity="0.34"/>
<stop offset="1" stop-color="white" stop-opacity="0"/>
</linearGradient>
<linearGradient id="paint16_linear_1_792" x1="445.672" y1="380.118" x2="528.61" y2="534.001" gradientUnits="userSpaceOnUse">
<stop offset="0.486979" stop-color="white" stop-opacity="0.34"/>
<stop offset="1" stop-color="white" stop-opacity="0"/>
</linearGradient>
<linearGradient id="paint17_linear_1_792" x1="451.341" y1="374.028" x2="520.552" y2="534.555" gradientUnits="userSpaceOnUse">
<stop offset="0.486979" stop-color="white" stop-opacity="0.34"/>
<stop offset="1" stop-color="white" stop-opacity="0"/>
</linearGradient>
</defs>
</svg>
