<svg width="42" height="43" viewBox="0 0 42 43" fill="none" xmlns="http://www.w3.org/2000/svg">
<rect y="0.430664" width="42" height="42" rx="16" fill="#206ECF"/>
<g clip-path="url(#clip0_2709_83)">
<path d="M26.0826 20.6383H22.1138V16.6695C22.1138 16.1431 21.6871 15.7164 21.1607 15.7164C20.6343 15.7164 20.2076 16.1431 20.2076 16.6695V20.6383H16.2388C15.7124 20.6383 15.2857 21.065 15.2857 21.5914C15.2857 22.1178 15.7124 22.5445 16.2388 22.5445H20.2076V26.5133C20.2076 27.0396 20.6343 27.4664 21.1607 27.4664C21.6871 27.4664 22.1138 27.0396 22.1138 26.5133V22.5445H26.0826C26.609 22.5445 27.0357 22.1178 27.0357 21.5914C27.0357 21.065 26.609 20.6383 26.0826 20.6383Z" fill="white" stroke="white" stroke-width="0.5"/>
</g>
<defs>
<clipPath id="clip0_2709_83">
<rect width="13.5" height="13.5" fill="white" transform="translate(14.25 14.6807)"/>
</clipPath>
</defs>
</svg>
