<svg width="42" height="43" viewBox="0 0 42 43" fill="none" xmlns="http://www.w3.org/2000/svg">
<rect y="0.430664" width="42" height="42" rx="16" fill="#206ECF"/>
<path d="M26.6461 19.9447H23.5533C23.5798 19.766 23.593 19.5855 23.593 19.4047V15.9427C23.592 15.0116 23.2383 14.1189 22.6096 13.4605C21.9808 12.8021 21.1283 12.4317 20.2391 12.4307H15.3539C14.4647 12.4317 13.6122 12.8021 12.9835 13.4605C12.3547 14.1189 12.001 15.0116 12 15.9427V19.4047C12.001 20.3358 12.3547 21.2285 12.9835 21.8869C13.6122 22.5453 14.4647 22.9156 15.3539 22.9167H18.4475C18.4206 23.0953 18.4071 23.2758 18.407 23.4567V26.9187C18.408 27.8498 18.7616 28.7425 19.3904 29.4009C20.0192 30.0593 20.8717 30.4296 21.7609 30.4307H26.6461C27.5353 30.4296 28.3878 30.0593 29.0166 29.4009C29.6453 28.7425 29.999 27.8498 30 26.9187V23.4567C29.999 22.5256 29.6453 21.6329 29.0165 20.9745C28.3878 20.3161 27.5353 19.9457 26.6461 19.9447ZM12.7228 19.4047V15.9427C12.7236 15.2122 13.0011 14.512 13.4943 13.9955C13.9876 13.479 14.6564 13.1884 15.3539 13.1876H20.2391C20.9367 13.1884 21.6054 13.479 22.0987 13.9955C22.5919 14.512 22.8694 15.2122 22.8702 15.9427V19.4047C22.8694 20.1351 22.5919 20.8354 22.0987 21.3519C21.6054 21.8684 20.9367 22.1589 20.2391 22.1597H15.3539C14.6564 22.1589 13.9876 21.8684 13.4943 21.3519C13.0011 20.8354 12.7236 20.1351 12.7228 19.4047ZM26.9171 24.3075H26.0361C25.7957 25.2063 25.3486 26.0297 24.7339 26.7056C25.0421 26.9635 25.3753 27.1868 25.728 27.3717L26.2197 27.6303C26.2621 27.6526 26.2999 27.6834 26.331 27.721C26.362 27.7586 26.3857 27.8022 26.4006 27.8494C26.4155 27.8966 26.4215 27.9464 26.418 27.996C26.4146 28.0455 26.4018 28.0939 26.3805 28.1383C26.3592 28.1828 26.3298 28.2223 26.2939 28.2548C26.258 28.2873 26.2163 28.3121 26.1712 28.3278C26.1262 28.3434 26.0786 28.3496 26.0313 28.346C25.9839 28.3424 25.9377 28.329 25.8953 28.3067L25.4036 28.0482C24.9747 27.8238 24.5715 27.5491 24.2018 27.2294C23.8333 27.5491 23.4312 27.8238 23.0033 28.0482L22.5116 28.3067C22.4259 28.3518 22.3267 28.3593 22.2357 28.3277C22.1447 28.2962 22.0694 28.228 22.0264 28.1383C21.9834 28.0486 21.9762 27.9447 22.0063 27.8494C22.0365 27.7541 22.1015 27.6753 22.1872 27.6302L22.6789 27.3717C23.0308 27.1871 23.3631 26.9641 23.6703 26.7064C23.3063 26.3022 22.999 25.846 22.7576 25.3513C22.736 25.307 22.723 25.2587 22.7193 25.2091C22.7155 25.1596 22.7212 25.1098 22.7358 25.0625C22.7505 25.0152 22.7739 24.9714 22.8047 24.9337C22.8356 24.8959 22.8732 24.8648 22.9155 24.8422C22.9578 24.8196 23.0039 24.806 23.0512 24.8021C23.0985 24.7982 23.1461 24.8041 23.1913 24.8195C23.2364 24.8348 23.2782 24.8593 23.3143 24.8916C23.3504 24.9239 23.3801 24.9633 23.4016 25.0076C23.6131 25.4407 23.8826 25.8399 24.2019 26.1932C24.6912 25.6565 25.06 25.0123 25.2815 24.3075H21.4898C21.3939 24.3075 21.302 24.2676 21.2342 24.1966C21.1664 24.1256 21.1283 24.0294 21.1283 23.929C21.1283 23.8286 21.1664 23.7324 21.2342 23.6614C21.302 23.5904 21.3939 23.5505 21.4898 23.5505H23.842V22.4069C23.842 22.3065 23.8801 22.2102 23.9479 22.1393C24.0157 22.0683 24.1076 22.0284 24.2035 22.0284C24.2993 22.0284 24.3913 22.0683 24.459 22.1393C24.5268 22.2102 24.5649 22.3065 24.5649 22.4069V23.5505H26.9171C27.013 23.5505 27.1049 23.5904 27.1727 23.6614C27.2405 23.7324 27.2786 23.8286 27.2786 23.929C27.2786 24.0294 27.2405 24.1256 27.1727 24.1966C27.1049 24.2676 27.013 24.3075 26.9171 24.3075Z" fill="white"/>
<path d="M18.6513 15.5333C18.5324 15.2387 18.2827 15.0557 17.9998 15.0557C17.7169 15.0557 17.4672 15.2387 17.3483 15.5333L15.7765 19.4283C15.7586 19.4727 15.7496 19.5202 15.75 19.5681C15.7504 19.616 15.7602 19.6633 15.7789 19.7074C15.7976 19.7515 15.8248 19.7915 15.8589 19.825C15.893 19.8586 15.9333 19.8851 15.9777 19.9031C16.022 19.921 16.0694 19.9301 16.1172 19.9297C16.165 19.9293 16.2123 19.9194 16.2563 19.9007C16.3003 19.882 16.3403 19.8548 16.3738 19.8206C16.4073 19.7865 16.4338 19.746 16.4517 19.7016L17.041 18.2414H18.9586L19.5479 19.7016C19.5657 19.7462 19.5922 19.7868 19.6257 19.821C19.6592 19.8553 19.6991 19.8827 19.7432 19.9015C19.7873 19.9203 19.8346 19.9302 19.8825 19.9306C19.9304 19.9311 19.9779 19.9221 20.0223 19.9041C20.0668 19.8861 20.1072 19.8595 20.1413 19.8258C20.1755 19.7922 20.2026 19.7521 20.2213 19.7079C20.2399 19.6637 20.2497 19.6162 20.25 19.5683C20.2503 19.5203 20.2411 19.4727 20.2231 19.4283L18.6513 15.5333ZM17.3354 17.5119L17.9998 15.8654L18.6643 17.5119H17.3354Z" fill="white"/>
</svg>
