<svg width="17" height="17" viewBox="0 0 17 17" fill="none" xmlns="http://www.w3.org/2000/svg">
<path d="M16.3356 8.85767C16.3356 13.2759 12.7539 16.8577 8.33563 16.8577C3.91735 16.8577 0.335632 13.2759 0.335632 8.85767C0.335632 4.43939 3.91735 0.857666 8.33563 0.857666C12.7539 0.857666 16.3356 4.43939 16.3356 8.85767Z" fill="white"/>
<path d="M9.22452 6.191C9.22452 5.70008 8.82655 5.30211 8.33563 5.30211C7.84471 5.30211 7.44674 5.70008 7.44674 6.191V7.96878H5.66897C5.17805 7.96878 4.78008 8.36675 4.78008 8.85767C4.78008 9.34859 5.17805 9.74656 5.66897 9.74656H7.44674V11.5243C7.44674 12.0153 7.84471 12.4132 8.33563 12.4132C8.82655 12.4132 9.22452 12.0153 9.22452 11.5243V9.74656H11.0023C11.4932 9.74656 11.8912 9.34859 11.8912 8.85767C11.8912 8.36675 11.4932 7.96878 11.0023 7.96878H9.22452V6.191Z" fill="#206ECF"/>
</svg>
