<svg width="42" height="43" viewBox="0 0 42 43" fill="none" xmlns="http://www.w3.org/2000/svg">
<rect y="0.430664" width="42" height="42" rx="16" fill="#206ECF"/>
<g clip-path="url(#clip0_2709_26)">
<path d="M27.75 17.4932V19.1807H14.25V17.4932C14.25 16.5628 15.0071 15.8057 15.9375 15.8057H17.625V14.6807H18.75V15.8057H23.25V14.6807H24.375V15.8057H26.0625C26.9929 15.8057 27.75 16.5628 27.75 17.4932ZM18.75 24.2432C18.75 22.6519 19.4858 21.2338 20.6338 20.3057H14.25V28.1807H20.6338C19.4858 27.2525 18.75 25.8345 18.75 24.2432Z" fill="white"/>
<path d="M26.5794 24.2432C26.5793 24.0751 26.5638 23.9073 26.5332 23.742L27.4688 23.2072L26.5465 21.6229L25.6107 22.1588C25.3523 21.9397 25.0554 21.7697 24.7348 21.6573V20.5869H22.8902V21.6573C22.5696 21.7697 22.2727 21.9397 22.0143 22.1588L21.0785 21.6229L20.1562 23.2072L21.0918 23.742C21.0303 24.0733 21.0303 24.413 21.0918 24.7444L20.1562 25.2791L21.0785 26.8635L22.0143 26.3278C22.2728 26.5468 22.5697 26.7167 22.8902 26.829V27.8994H24.7348V26.829C25.0554 26.7166 25.3523 26.5466 25.6107 26.3275L26.5465 26.8635L27.4688 25.2791L26.5332 24.7444C26.5638 24.579 26.5793 24.4113 26.5794 24.2432ZM24.7348 24.2432C24.7348 24.4239 24.6807 24.6007 24.5794 24.751C24.478 24.9013 24.334 25.0185 24.1654 25.0876C23.9969 25.1568 23.8115 25.1749 23.6326 25.1397C23.4537 25.1044 23.2893 25.0173 23.1603 24.8895C23.0314 24.7617 22.9435 24.5988 22.9079 24.4215C22.8723 24.2442 22.8906 24.0604 22.9604 23.8934C23.0302 23.7263 23.1484 23.5836 23.3001 23.4831C23.4518 23.3827 23.6301 23.3291 23.8125 23.3291C24.0571 23.3291 24.2917 23.4254 24.4647 23.5968C24.6376 23.7682 24.7348 24.0007 24.7348 24.2432Z" fill="white"/>
</g>
<defs>
<clipPath id="clip0_2709_26">
<rect width="13.5" height="13.5" fill="white" transform="translate(14.25 14.6807)"/>
</clipPath>
</defs>
</svg>
