<svg width="42" height="43" viewBox="0 0 42 43" fill="none" xmlns="http://www.w3.org/2000/svg">
<rect y="0.430664" width="42" height="42" rx="16" fill="#206ECF"/>
<g clip-path="url(#clip0_2709_36)">
<path d="M24.6 25.5833V28.1807C24.99 28.0469 25.345 27.8271 25.6384 27.5374L27.1062 26.0685C27.3962 25.7755 27.6163 25.4207 27.75 25.0307H25.1526C25.0061 25.0307 24.8655 25.0889 24.7619 25.1925C24.6582 25.2962 24.6 25.4367 24.6 25.5833Z" fill="white"/>
<path d="M18.5043 22.2516C18.2968 22.4589 18.1323 22.7052 18.02 22.9761C17.9078 23.2471 17.85 23.5376 17.85 23.8309V24.5807H18.5998C18.8931 24.5807 19.1835 24.5229 19.4545 24.4106C19.7255 24.2984 19.9717 24.1338 20.1791 23.9264L26.5031 17.6023C26.7252 17.3802 26.85 17.079 26.85 16.7649C26.85 16.4508 26.7252 16.1496 26.5031 15.9275C26.281 15.7054 25.9798 15.5807 25.6657 15.5807C25.3517 15.5807 25.0504 15.7054 24.8283 15.9275L18.5043 22.2516Z" fill="white"/>
<path d="M27.75 17.4662C27.6542 17.8834 27.4438 18.2657 27.1425 18.5698L20.7671 24.9424C20.4544 25.2567 20.0825 25.5059 19.6728 25.6756C19.2631 25.8452 18.8238 25.9319 18.3804 25.9307H17.625C17.3266 25.9307 17.0405 25.8121 16.8295 25.6012C16.6185 25.3902 16.5 25.104 16.5 24.8057V24.0502C16.4988 23.6069 16.5855 23.1676 16.7553 22.7581C16.925 22.3485 17.1744 21.9766 17.4889 21.6641L23.8609 15.2915C24.1627 14.9898 24.5428 14.7782 24.9583 14.6807C24.951 14.6807 24.9448 14.6807 24.9375 14.6807H17.0625C16.3169 14.6816 15.602 14.9782 15.0747 15.5054C14.5475 16.0327 14.2509 16.7475 14.25 17.4932V25.3682C14.2509 26.1138 14.5475 26.8287 15.0747 27.3559C15.602 27.8832 16.3169 28.1798 17.0625 28.1807H23.25V25.3682C23.25 24.9206 23.4278 24.4914 23.7443 24.1749C24.0607 23.8585 24.4899 23.6807 24.9375 23.6807H27.75V17.4932C27.75 17.4842 27.75 17.4757 27.75 17.4662Z" fill="white"/>
</g>
<defs>
<clipPath id="clip0_2709_36">
<rect width="13.5" height="13.5" fill="white" transform="translate(14.25 14.6807)"/>
</clipPath>
</defs>
</svg>
