<svg width="17" height="17" viewBox="0 0 17 17" fill="none" xmlns="http://www.w3.org/2000/svg">
<path d="M2.61466 10.9246H0.774759V10.2558C0.764634 9.31806 1.01299 8.39563 1.49257 7.58972C1.97215 6.78381 2.66444 6.12556 3.49348 5.68717C4.31019 5.28448 5.1947 5.03727 6.10185 4.95816C5.70546 5.44863 5.30797 5.96985 4.90935 6.52185C4.01155 7.91625 3.24344 9.39001 2.61466 10.9246ZM11.1969 12.806C9.80257 13.705 8.32881 14.4742 6.79407 15.104V16.9439H7.46288C8.40064 16.9541 9.32307 16.7057 10.129 16.2261C10.9349 15.7466 11.5931 15.0543 12.0315 14.2252C12.4342 13.4085 12.6814 12.524 12.7605 11.6169C12.2723 12.0115 11.7511 12.4078 11.1969 12.806ZM16.8262 2.89287C16.7373 5.80421 14.6412 8.69147 10.4177 11.7212C9.26835 12.4663 8.05582 13.109 6.79407 13.642V13.2655C6.79108 12.6456 6.54349 12.0519 6.10515 11.6136C5.6668 11.1752 5.07313 10.9276 4.45322 10.9246H4.07668C4.61033 9.6629 5.25398 8.45057 6.00019 7.30168C9.02255 3.08482 11.9051 0.988765 14.8118 0.892456C16.2604 0.892456 16.8262 1.48435 16.8262 2.89287ZM12.8134 6.57736C12.8134 6.13391 12.6372 5.70862 12.3236 5.39505C12.0101 5.08149 11.5848 4.90533 11.1413 4.90533C10.6979 4.90533 10.2726 5.08149 9.95904 5.39505C9.64547 5.70862 9.46931 6.13391 9.46931 6.57736C9.46931 7.02081 9.64547 7.44609 9.95904 7.75966C10.2726 8.07323 10.6979 8.24939 11.1413 8.24939C11.5848 8.24939 12.0101 8.07323 12.3236 7.75966C12.6372 7.44609 12.8134 7.02081 12.8134 6.57736ZM1.69371 16.8001C2.44679 16.6664 4.26261 16.2932 4.86923 15.6872C5.05556 15.5009 5.20336 15.2797 5.3042 15.0363C5.40504 14.7928 5.45695 14.5319 5.45695 14.2684C5.45695 14.0049 5.40504 13.7439 5.3042 13.5005C5.20336 13.257 5.05556 13.0358 4.86923 12.8495C4.6829 12.6631 4.46169 12.5153 4.21824 12.4145C3.97478 12.3137 3.71385 12.2618 3.45034 12.2618C2.91816 12.2618 2.40777 12.4732 2.03146 12.8495C1.42551 13.4561 1.05165 15.2719 0.918554 16.025L0.753357 16.9653L1.69371 16.8001Z" fill="white"/>
</svg>
