<svg width="42" height="43" viewBox="0 0 42 43" fill="none" xmlns="http://www.w3.org/2000/svg">
<rect y="0.430664" width="42" height="42" rx="16" fill="#206ECF"/>
<path d="M19.5397 22.7271L13.6631 17.1342C13.9368 16.6783 14.4392 16.1538 14.9003 15.8914C15.3614 15.6289 15.9168 15.5821 16.4468 15.5807H21.0862C20.765 16.6828 20.8544 17.9869 21.3955 18.9985C21.9366 20.0101 22.7777 20.5236 23.8698 20.8628L22.0141 22.7271C21.6653 23.0757 21.2689 23.3487 20.7769 23.3485C20.2849 23.3483 19.8882 23.0761 19.5397 22.7271ZM22.942 23.6592C22.3613 24.2409 21.5969 24.5914 20.7769 24.5914C19.9569 24.5914 19.1925 24.2409 18.6118 23.6592L13.3538 18.3771C13.3452 18.4753 13.3538 18.5902 13.3538 18.6878V25.5235C13.3548 26.3473 13.7019 27.116 14.2817 27.6985C14.8615 28.281 15.6268 28.6297 16.4468 28.6307H25.107C25.927 28.6297 26.6923 28.281 27.2721 27.6985C27.8519 27.116 28.199 26.3473 28.2 25.5235V19.9307C27.4645 20.6865 26.4657 21.0965 25.4163 21.1735L22.942 23.6592Z" fill="white"/>
<path d="M28.3928 17.5735C28.3928 19.1687 27.0947 20.4664 25.4999 20.4664C23.9051 20.4664 22.6071 19.1687 22.6071 17.5735C22.6071 15.9783 23.9051 14.6807 25.4999 14.6807C27.0947 14.6807 28.3928 15.9783 28.3928 17.5735ZM26.4642 18.2164L25.8213 17.2521V16.2878H25.1785V17.8949L26.1428 18.5378L26.4642 18.2164Z" fill="white"/>
</svg>
