<svg width="996" height="559" viewBox="0 0 996 559" fill="none" xmlns="http://www.w3.org/2000/svg">
<g filter="url(#filter0_d_1_442)">
<rect x="92" y="22" width="838" height="501" rx="14.0261" fill="white"/>
</g>
<rect x="463.753" y="83.7533" width="446.493" height="187.493" rx="12.2728" fill="white" stroke="#F5F7FC" stroke-width="3.50653"/>
<rect x="149.753" y="81.7533" width="290.493" height="113.493" rx="12.2728" fill="white" stroke="#F5F7FC" stroke-width="3.50653"/>
<rect x="176" y="159" width="70" height="14" rx="7" fill="#E1E7EE"/>
<rect x="346" y="99" width="23" height="80" rx="7.01305" fill="#F0F3F9"/>
<rect x="375" y="124" width="21" height="56" rx="7.01305" fill="#F0F3F9"/>
<rect x="403" y="159" width="21" height="21" rx="7.01305" fill="#F0F3F9"/>
<rect x="149.753" y="254.753" width="290.493" height="113.493" rx="12.2728" fill="white" stroke="#F5F7FC" stroke-width="3.50653"/>
<rect x="176" y="332" width="70" height="14" rx="7" fill="#E1E7EE"/>
<rect x="346" y="272" width="23" height="80" rx="7.01305" fill="#F0F3F9"/>
<rect x="375" y="297" width="21" height="56" rx="7.01305" fill="#F0F3F9"/>
<rect x="403" y="332" width="21" height="21" rx="7.01305" fill="#F0F3F9"/>
<rect x="150.753" y="427.753" width="289.493" height="89.4935" rx="12.2728" fill="white" stroke="#F5F7FC" stroke-width="3.50653"/>
<rect x="176" y="491" width="70" height="14" rx="7" fill="#E1E7EE"/>
<rect x="346" y="431" width="23" height="81" rx="7.01305" fill="#F0F3F9"/>
<rect x="376" y="456" width="21" height="56" rx="7.01305" fill="#F0F3F9"/>
<rect x="404" y="491" width="21" height="21" rx="7.01305" fill="#F0F3F9"/>
<rect x="488" y="402" width="44" height="35" rx="7.01305" fill="#EBF0F6"/>
<rect x="546" y="381" width="46" height="56" rx="7.01305" fill="#EBF0F6"/>
<rect x="605" y="353" width="46" height="84" rx="7.01305" fill="#EBF0F6"/>
<rect x="663" y="325" width="46" height="112" rx="7.01305" fill="#EBF0F6"/>
<rect x="721" y="297" width="46" height="140" rx="7.01305" fill="#EBF0F6"/>
<rect x="781" y="353" width="46" height="84" rx="7.01305" fill="#EBF0F6"/>
<rect x="840" y="381" width="46" height="56" rx="7.01305" fill="#EBF0F6"/>
<path d="M92 32C92 26.4772 96.4772 22 102 22H917.5C924.404 22 930 27.5964 930 34.5V47H92V32Z" fill="#EDF1F7"/>
<circle cx="106.5" cy="34.5" r="5.5" fill="#DCE3EB"/>
<circle cx="123.5" cy="34.5" r="5.5" fill="#DCE3EB"/>
<circle cx="141.5" cy="34.5" r="5.5" fill="#DCE3EB"/>
<circle cx="465.5" cy="34.5" r="5.5" fill="#DCE3EB"/>
<rect x="478.013" y="31" width="84" height="7" rx="3.5" fill="#DCE3EB"/>
<rect x="92" y="45" width="838" height="478" fill="black" fill-opacity="0.03"/>
<g filter="url(#filter1_d_1_442)">
<rect x="646" y="396" width="316" height="84" rx="14.0261" fill="white"/>
<rect x="647.753" y="397.753" width="312.493" height="80.4935" rx="12.2728" stroke="#F5F7FC" stroke-width="3.50653"/>
</g>
<rect x="676" y="450" width="33" height="11" rx="5.25979" fill="#DCE3EB"/>
<rect x="676" y="428" width="40" height="7" rx="3.5" fill="#DCE3EB"/>
<rect x="748" y="428" width="30" height="7" rx="3.5" fill="#DCE3EB"/>
<rect x="816" y="428" width="40" height="7" rx="3.5" fill="#DCE3EB"/>
<rect x="892" y="428" width="21" height="7" rx="3.5" fill="#DCE3EB"/>
<rect x="676" y="422" width="32" height="4" rx="2" fill="#DCE3EB"/>
<rect x="748" y="422" width="35" height="4" rx="2" fill="#DCE3EB"/>
<rect x="816" y="422" width="51" height="4" rx="2" fill="#DCE3EB"/>
<rect x="892" y="422" width="28" height="4" rx="2" fill="#DCE3EB"/>
<rect x="744" y="450" width="40" height="11" rx="5.25979" fill="#DCE3EB"/>
<rect x="813" y="450" width="25" height="11" rx="5.25979" fill="#DCE3EB"/>
<rect x="892" y="450" width="33" height="11" rx="5.25979" fill="#DCE3EB"/>
<g filter="url(#filter2_d_1_442)">
<rect x="476" y="68" width="491" height="196" rx="14.0261" fill="white"/>
<rect x="477.753" y="69.7533" width="487.493" height="192.493" rx="12.2728" stroke="#F5F7FC" stroke-width="3.50653"/>
</g>
<path d="M530 189.797C542.503 186.513 558.997 169.563 576.022 173.504C597.304 178.43 606.349 211.021 623.108 205.337C639.868 199.653 684.627 166.756 711.96 173.504C745.745 181.845 740.957 219.351 772.347 189.797C803.738 160.242 822.892 178.056 848.962 181.087C875.032 184.118 900.571 174.262 916 161" stroke="#EBF0F6" stroke-width="1.75326" stroke-linecap="round"/>
<path d="M530 184.85C542.503 181.603 571.766 176.081 588.791 179.979C610.073 184.85 616.724 203.588 633.483 197.967C650.243 192.345 686.688 152.622 711.96 168.736C737.232 184.85 745.479 227.197 776.87 197.967C808.261 168.736 805.6 153.372 831.671 156.37C857.741 159.368 900.571 169.486 916 156.37" stroke="#EEF4FC" stroke-width="3.50653" stroke-linecap="round"/>
<circle cx="701" cy="165" r="4" fill="#DCE3EB"/>
<path d="M678.877 133.561C678.877 131.526 680.526 129.877 682.561 129.877H718.439C720.474 129.877 722.123 131.526 722.123 133.561V146.334C722.123 148.369 720.474 150.018 718.439 150.018H707.951C705.066 150.018 702.337 151.324 700.527 153.569C700.522 153.576 700.518 153.578 700.516 153.579C700.512 153.581 700.507 153.582 700.5 153.582C700.493 153.582 700.488 153.581 700.484 153.579C700.482 153.578 700.478 153.576 700.473 153.569C698.663 151.324 695.934 150.018 693.049 150.018H682.561C680.526 150.018 678.877 148.369 678.877 146.334V133.561Z" stroke="#DCE3EB" stroke-width="1.75326"/>
<rect x="518" y="108" width="105" height="14" rx="7" fill="#DCE3EB"/>
<rect x="858" y="210" width="79" height="11" rx="5.25979" fill="#DCE3EB"/>
<rect x="518" y="129" width="58" height="9" rx="4.5" fill="#DCE3EB"/>
<rect x="894" y="226" width="43" height="7" rx="3.5" fill="#DCE3EB"/>
<rect x="692" y="140" width="19" height="3" rx="1.5" fill="#DCE3EB"/>
<rect x="695" y="135" width="11" height="4" rx="2" fill="#DCE3EB"/>
<g filter="url(#filter3_d_1_442)">
<rect x="30.7533" y="226.753" width="385.493" height="113.493" rx="12.2728" fill="white" stroke="#F5F7FC" stroke-width="3.50653"/>
<rect x="66" y="304" width="60" height="14" rx="7" fill="#E1E7EE"/>
<rect x="243" y="284" width="21" height="45" rx="7.01305" fill="#F0F3F9"/>
<rect x="271" y="300" width="21" height="30" rx="7.01305" fill="#F0F3F9"/>
<rect x="299" y="256" width="21" height="73" rx="7.01305" fill="#F0F3F9"/>
<rect x="327" y="272" width="21" height="58" rx="7.01305" fill="#F0F3F9"/>
<rect x="355" y="300" width="21" height="30" rx="7.01305" fill="#F0F3F9"/>
<rect x="383" y="284" width="21" height="45" rx="7.01305" fill="#F0F3F9"/>
</g>
<g filter="url(#filter4_d_1_442)">
<rect x="30.7533" y="365.753" width="385.493" height="113.493" rx="12.2728" fill="white" stroke="#F5F7FC" stroke-width="3.50653"/>
<rect x="66" y="443" width="60" height="14" rx="7" fill="#E1E7EE"/>
<rect x="243" y="443" width="21" height="26" rx="7.01305" fill="#F0F3F9"/>
<rect x="271" y="420" width="21" height="49" rx="7.01305" fill="#F0F3F9"/>
<rect x="299" y="436" width="21" height="33" rx="7.01305" fill="#F0F3F9"/>
<rect x="327" y="420" width="21" height="49" rx="7.01305" fill="#EEF4FC"/>
<rect x="355" y="439" width="21" height="30" rx="7.01305" fill="#F0F3F9"/>
<rect x="383" y="423" width="21" height="45" rx="7.01305" fill="#F0F3F9"/>
</g>
<defs>
<filter id="filter0_d_1_442" x="63.9478" y="0.960844" width="894.104" height="557.104" filterUnits="userSpaceOnUse" color-interpolation-filters="sRGB">
<feFlood flood-opacity="0" result="BackgroundImageFix"/>
<feColorMatrix in="SourceAlpha" type="matrix" values="0 0 0 0 0 0 0 0 0 0 0 0 0 0 0 0 0 0 127 0" result="hardAlpha"/>
<feOffset dy="7.01305"/>
<feGaussianBlur stdDeviation="14.0261"/>
<feColorMatrix type="matrix" values="0 0 0 0 0 0 0 0 0 0 0 0 0 0 0 0 0 0 0.08 0"/>
<feBlend mode="normal" in2="BackgroundImageFix" result="effect1_dropShadow_1_442"/>
<feBlend mode="normal" in="SourceGraphic" in2="effect1_dropShadow_1_442" result="shape"/>
</filter>
<filter id="filter1_d_1_442" x="617.948" y="374.961" width="372.104" height="140.104" filterUnits="userSpaceOnUse" color-interpolation-filters="sRGB">
<feFlood flood-opacity="0" result="BackgroundImageFix"/>
<feColorMatrix in="SourceAlpha" type="matrix" values="0 0 0 0 0 0 0 0 0 0 0 0 0 0 0 0 0 0 127 0" result="hardAlpha"/>
<feOffset dy="7.01305"/>
<feGaussianBlur stdDeviation="14.0261"/>
<feColorMatrix type="matrix" values="0 0 0 0 0 0 0 0 0 0 0 0 0 0 0 0 0 0 0.08 0"/>
<feBlend mode="normal" in2="BackgroundImageFix" result="effect1_dropShadow_1_442"/>
<feBlend mode="normal" in="SourceGraphic" in2="effect1_dropShadow_1_442" result="shape"/>
</filter>
<filter id="filter2_d_1_442" x="447.948" y="46.9608" width="547.104" height="252.104" filterUnits="userSpaceOnUse" color-interpolation-filters="sRGB">
<feFlood flood-opacity="0" result="BackgroundImageFix"/>
<feColorMatrix in="SourceAlpha" type="matrix" values="0 0 0 0 0 0 0 0 0 0 0 0 0 0 0 0 0 0 127 0" result="hardAlpha"/>
<feOffset dy="7.01305"/>
<feGaussianBlur stdDeviation="14.0261"/>
<feColorMatrix type="matrix" values="0 0 0 0 0 0 0 0 0 0 0 0 0 0 0 0 0 0 0.08 0"/>
<feBlend mode="normal" in2="BackgroundImageFix" result="effect1_dropShadow_1_442"/>
<feBlend mode="normal" in="SourceGraphic" in2="effect1_dropShadow_1_442" result="shape"/>
</filter>
<filter id="filter3_d_1_442" x="0.947792" y="203.961" width="445.104" height="173.104" filterUnits="userSpaceOnUse" color-interpolation-filters="sRGB">
<feFlood flood-opacity="0" result="BackgroundImageFix"/>
<feColorMatrix in="SourceAlpha" type="matrix" values="0 0 0 0 0 0 0 0 0 0 0 0 0 0 0 0 0 0 127 0" result="hardAlpha"/>
<feOffset dy="7.01305"/>
<feGaussianBlur stdDeviation="14.0261"/>
<feColorMatrix type="matrix" values="0 0 0 0 0 0 0 0 0 0 0 0 0 0 0 0 0 0 0.08 0"/>
<feBlend mode="normal" in2="BackgroundImageFix" result="effect1_dropShadow_1_442"/>
<feBlend mode="normal" in="SourceGraphic" in2="effect1_dropShadow_1_442" result="shape"/>
</filter>
<filter id="filter4_d_1_442" x="0.947792" y="342.961" width="445.104" height="173.104" filterUnits="userSpaceOnUse" color-interpolation-filters="sRGB">
<feFlood flood-opacity="0" result="BackgroundImageFix"/>
<feColorMatrix in="SourceAlpha" type="matrix" values="0 0 0 0 0 0 0 0 0 0 0 0 0 0 0 0 0 0 127 0" result="hardAlpha"/>
<feOffset dy="7.01305"/>
<feGaussianBlur stdDeviation="14.0261"/>
<feColorMatrix type="matrix" values="0 0 0 0 0 0 0 0 0 0 0 0 0 0 0 0 0 0 0.08 0"/>
<feBlend mode="normal" in2="BackgroundImageFix" result="effect1_dropShadow_1_442"/>
<feBlend mode="normal" in="SourceGraphic" in2="effect1_dropShadow_1_442" result="shape"/>
</filter>
</defs>
</svg>
